<svg xmlns="http://www.w3.org/2000/svg" width="1024" height="500" viewBox="0 0 1024 500">
  <defs>
    <linearGradient id="sky" x1="96" y1="20" x2="934" y2="500" gradientUnits="userSpaceOnUse">
      <stop stop-color="#1768E5"/>
      <stop offset="1" stop-color="#07101D"/>
    </linearGradient>
    <linearGradient id="rain" x1="0" y1="0" x2="0" y2="1">
      <stop stop-color="#BFE8FF" stop-opacity=".9"/>
      <stop offset="1" stop-color="#BFE8FF" stop-opacity="0"/>
    </linearGradient>
  </defs>
  <rect width="1024" height="500" fill="url(#sky)"/>
  <circle cx="830" cy="94" r="270" fill="#238BFF" opacity=".14"/>
  <circle cx="902" cy="392" r="220" fill="#35B7FF" opacity=".08"/>
  <g opacity=".62" stroke="url(#rain)" stroke-width="5" stroke-linecap="round">
    <path d="M706 188l-38 88"/><path d="M768 164l-49 114"/><path d="M835 177l-43 100"/>
    <path d="M900 151l-55 128"/><path d="M960 183l-42 98"/>
  </g>
  <g transform="translate(700 48) scale(.25)">
    <rect width="1024" height="1024" rx="176" fill="#07152F"/>
    <g fill="none" stroke-linecap="round">
      <circle cx="512" cy="512" r="390" stroke="#1B6DE1" stroke-width="5" opacity=".72"/>
      <circle cx="512" cy="512" r="300" stroke="#1451B6" stroke-width="4" opacity=".68"/>
      <path d="M512 58v178M512 788v178M58 512h178M788 512h178" stroke="#1A75E2" stroke-width="6" opacity=".62"/>
      <path d="M190 264c92-92 204-138 322-138M834 760c-92 92-204 138-322 138" stroke="#168CFF" stroke-width="24" opacity=".92"/>
      <path d="M744 198c64 46 116 103 154 170M280 826c-64-46-116-103-154-170" stroke="#13CAFF" stroke-width="18" opacity=".8"/>
    </g>
    <path fill="#FFFFFF" d="M512 294c-80 119-154 201-154 304 0 92 69 166 154 166s154-74 154-166c0-103-74-185-154-304Z"/>
    <path fill="#A7EFFF" d="M512 340c-34 53-66 93-66 139 0 31 20 56 45 64 8-67 20-128 21-203Z"/>
  </g>
  <text x="72" y="193" fill="#FFFFFF" font-family="Inter, -apple-system, BlinkMacSystemFont, 'Segoe UI', sans-serif" font-size="76" font-weight="760" letter-spacing="-2">Rain, timed.</text>
  <text x="76" y="257" fill="#D6E8FF" font-family="Inter, -apple-system, BlinkMacSystemFont, 'Segoe UI', sans-serif" font-size="30" font-weight="560">Know when rain reaches you.</text>
  <g transform="translate(76 324)">
    <rect width="460" height="82" rx="41" fill="#FFFFFF" opacity=".12"/>
    <circle cx="45" cy="41" r="11" fill="#BFE8FF"/>
    <path d="M78 41h335" stroke="#FFFFFF" stroke-opacity=".35" stroke-width="8" stroke-linecap="round"/>
    <path d="M78 41h186" stroke="#BFE8FF" stroke-width="8" stroke-linecap="round"/>
    <text x="294" y="51" fill="#FFFFFF" font-family="Inter, -apple-system, BlinkMacSystemFont, 'Segoe UI', sans-serif" font-size="26" font-weight="700">+120 min</text>
  </g>
</svg>
